<svg width="44" height="44" viewBox="0 0 44 44" fill="none" xmlns="http://www.w3.org/2000/svg">
<path d="M15.125 9.625C16.219 9.625 17.2682 10.0596 18.0418 10.8332C18.8154 11.6068 19.25 12.656 19.25 13.75V30.25C19.25 31.344 18.8154 32.3932 18.0418 33.1668C17.2682 33.9404 16.219 34.375 15.125 34.375C14.031 34.375 12.9818 33.9404 12.2082 33.1668C11.4346 32.3932 11 31.344 11 30.25V13.75C11 12.656 11.4346 11.6068 12.2082 10.8332C12.9818 10.0596 14.031 9.625 15.125 9.625ZM28.875 9.625C29.969 9.625 31.0182 10.0596 31.7918 10.8332C32.5654 11.6068 33 12.656 33 13.75V30.25C33 31.344 32.5654 32.3932 31.7918 33.1668C31.0182 33.9404 29.969 34.375 28.875 34.375C27.781 34.375 26.7318 33.9404 25.9582 33.1668C25.1846 32.3932 24.75 31.344 24.75 30.25V13.75C24.75 12.656 25.1846 11.6068 25.9582 10.8332C26.7318 10.0596 27.781 9.625 28.875 9.625Z" fill="white"/>
</svg>
