<svg width="24" height="24" viewBox="0 0 24 24" fill="none" xmlns="http://www.w3.org/2000/svg">
<g clip-path="url(#clip0_3546_607)">
<path d="M17.3217 14.4L24 21.0783L21.0783 24L14.4 17.3217C13.6696 17.7391 12.887 18.087 12.0522 18.3652C11.2174 18.6435 10.3304 18.7826 9.3913 18.7826C6.78261 18.7826 4.56522 17.8696 2.73913 16.0435C0.913043 14.2174 0 12 0 9.3913C0 6.78261 0.913043 4.56522 2.73913 2.73913C4.56522 0.913043 6.78261 0 9.3913 0C12 0 14.2174 0.913043 16.0435 2.73913C17.8696 4.56522 18.7826 6.78261 18.7826 9.3913C18.7826 10.3304 18.6435 11.2174 18.3652 12.0522C18.087 12.887 17.7391 13.6696 17.3217 14.4ZM9.3913 14.6087C10.8522 14.6087 12.087 14.1043 13.0957 13.0957C14.1043 12.087 14.6087 10.8522 14.6087 9.3913C14.6087 7.93043 14.1043 6.69565 13.0957 5.68696C12.087 4.67826 10.8522 4.17391 9.3913 4.17391C7.93043 4.17391 6.69565 4.67826 5.68696 5.68696C4.67826 6.69565 4.17391 7.93043 4.17391 9.3913C4.17391 10.8522 4.67826 12.087 5.68696 13.0957C6.69565 14.1043 7.93043 14.6087 9.3913 14.6087Z" fill="#C5C5C5"/>
</g>
<defs>
<clipPath id="clip0_3546_607">
<rect width="24" height="24" fill="white"/>
</clipPath>
</defs>
</svg>
